<svg width="17" height="20" viewBox="0 0 17 20" fill="none" xmlns="http://www.w3.org/2000/svg">
<path d="M16.6085 12.4901L15.5035 10.8301C15.2714 10.4601 15.0614 9.76008 15.0614 9.35009V6.82011C15.0601 5.70415 14.7096 4.61134 14.0506 3.6681C13.3916 2.72487 12.4509 1.96976 11.3373 1.49015C11.0531 1.03349 10.6386 0.654298 10.1371 0.392192C9.63553 0.130086 9.0654 -0.0053078 8.48627 0.000159242C7.28174 0.000159242 6.19877 0.590155 5.62414 1.52015C3.46925 2.49014 1.97741 4.50012 1.97741 6.82011V9.35009C1.97741 9.76008 1.76744 10.4601 1.53538 10.8201L0.419259 12.4901C-0.0227688 13.1601 -0.122225 13.9 0.154042 14.58C0.419259 15.25 1.04915 15.77 1.8669 16.02C4.01073 16.68 6.26508 17 8.51942 17C10.7738 17 13.0281 16.68 15.1719 16.03C15.9455 15.8 16.5422 15.27 16.8295 14.58C17.1169 13.89 17.0395 13.1301 16.6085 12.4901ZM11.6247 18.01C11.3923 18.5922 10.9675 19.0954 10.4079 19.4515C9.84841 19.8075 9.18132 19.999 8.49732 20C7.62431 20 6.76236 19.68 6.15457 19.11C5.80095 18.81 5.53573 18.41 5.38102 18C5.52468 18.02 5.66834 18.03 5.82305 18.05C6.07721 18.08 6.34243 18.11 6.60765 18.13C7.23754 18.18 7.87848 18.21 8.51942 18.21C9.14931 18.21 9.7792 18.18 10.398 18.13C10.6301 18.11 10.8622 18.1 11.0832 18.07L11.6247 18.01Z" fill="white"/>
</svg>
