<svg width="21" height="21" viewBox="0 0 21 21" fill="none" xmlns="http://www.w3.org/2000/svg">
<path d="M16 7.3099C15.64 6.8999 15.27 6.4899 14.88 6.0999L14.59 5.8299L14.73 5.7099C15.2191 5.29011 15.5676 4.73042 15.7285 4.10634C15.8894 3.48226 15.8551 2.82384 15.63 2.2199C15.3039 1.53888 14.7876 0.966835 14.1435 0.572885C13.4993 0.178935 12.7549 -0.0200717 12 -9.58972e-05V1.9999C12.3558 1.99495 12.7065 2.08501 13.0159 2.2608C13.3253 2.43658 13.5822 2.69172 13.76 2.9999C13.93 3.3999 13.76 3.8399 13.29 4.3099C13.22 4.3899 13.14 4.4399 13.07 4.5099C10.07 2.0999 6.78004 0.739904 5.17004 2.3499C5.00197 2.52278 4.86346 2.7221 4.76004 2.9399V3.0399L4.58004 3.5699L0.170043 16.6699C0.00323328 17.1636 -0.0435603 17.6899 0.0335381 18.2052C0.110637 18.7206 0.309408 19.2101 0.613389 19.6333C0.91737 20.0566 1.31781 20.4013 1.78155 20.6389C2.24528 20.8766 2.75896 21.0003 3.28004 20.9999C3.62029 20.9968 3.95787 20.9394 4.28004 20.8299L18 16.2799C18.1687 16.2171 18.3172 16.11 18.43 15.9699L18.64 15.7899C20.07 14.3499 19.15 11.5799 17.23 8.8899C18.3701 8.22456 19.6828 7.91466 21 7.9999V5.9999C19.2374 5.90292 17.4887 6.36108 16 7.3099ZM3.70004 18.9299C3.47305 19.005 3.22964 19.0156 2.99699 18.9604C2.76435 18.9052 2.55161 18.7865 2.38254 18.6174C2.21347 18.4483 2.09471 18.2356 2.03953 18.003C1.98435 17.7703 1.99491 17.5269 2.07004 17.2999L3.43004 13.1999C4.40063 15.0508 5.892 16.5769 7.72004 17.5899L3.70004 18.9299ZM10.7 16.5999C9.18877 16.1997 7.81013 15.4071 6.70378 14.3025C5.59743 13.1979 4.80268 11.8205 4.40004 10.3099L5.40004 7.3099L5.46004 7.3999C5.57004 7.6199 5.71004 7.8499 5.85004 8.0799C5.99004 8.3099 6.01004 8.3699 6.11004 8.5199C6.21004 8.6699 6.44004 8.9999 6.62004 9.2499C6.80004 9.4999 6.81004 9.5299 6.92004 9.6699C7.03004 9.8099 7.35004 10.2199 7.58004 10.4899L7.87004 10.8399C8.21004 11.2299 8.57004 11.6099 8.95004 11.9999C9.33004 12.3899 9.63004 12.6399 9.95004 12.9999L10.28 13.2799L11.06 13.9099L11.43 14.1899C11.71 14.3899 11.98 14.5899 12.26 14.7699L12.57 14.9699C12.93 15.1899 13.29 15.3999 13.64 15.5799H13.69L10.7 16.5999ZM17.21 14.3699H17.15C16.46 14.7499 13.59 13.7999 10.36 10.5599C10.02 10.2199 9.70004 9.8899 9.41004 9.5599L9.12004 9.2099L8.59004 8.5699L8.30004 8.1699C8.17004 7.9799 8.03004 7.7999 7.91004 7.6199L7.65004 7.1999L7.36004 6.7299C7.28004 6.5899 7.22004 6.4599 7.15004 6.3299C7.08004 6.1999 7.00004 6.0699 6.94004 5.9299C6.88569 5.81304 6.83893 5.69279 6.80004 5.5699C6.75004 5.4399 6.69004 5.3099 6.65004 5.1899C6.61004 5.0699 6.60004 4.9999 6.57004 4.8799C6.54004 4.7599 6.52004 4.6599 6.50004 4.5599C6.4944 4.47333 6.4944 4.38648 6.50004 4.2999C6.49041 4.22019 6.49041 4.13961 6.50004 4.0599L6.61004 3.7499C6.97004 3.3899 8.84004 3.7499 11.34 5.6499C10.9165 5.84171 10.4633 5.96007 10 5.9999V7.9999C11.0623 7.9388 12.0929 7.61588 13 7.0599L13.48 7.5199C13.9 7.9399 14.29 8.3699 14.66 8.7999C14.0876 9.83502 13.8765 11.0314 14.06 12.1999L16.06 11.8099C16.0016 11.4389 16.0016 11.061 16.06 10.6899C16.3662 11.1521 16.637 11.6368 16.87 12.1399C17.43 13.4599 17.39 14.1999 17.21 14.3699Z" fill="white"/>
</svg>
