<svg width="15" height="11" viewBox="0 0 15 11" fill="none" xmlns="http://www.w3.org/2000/svg">
<path d="M0.703125 0.8125H14.2969C14.4834 0.8125 14.6622 0.895676 14.7941 1.04373C14.9259 1.19179 15 1.39259 15 1.60197C15 1.81136 14.9259 2.01216 14.7941 2.16022C14.6622 2.30827 14.4834 2.39145 14.2969 2.39145H0.703125C0.516645 2.39145 0.337802 2.30827 0.205941 2.16022C0.074079 2.01216 0 1.81136 0 1.60197C0 1.39259 0.074079 1.19179 0.205941 1.04373C0.337802 0.895676 0.516645 0.8125 0.703125 0.8125ZM2.8125 5.8125C2.8125 5.60312 2.88658 5.40231 3.01844 5.25426C3.1503 5.1062 3.32914 5.02303 3.51562 5.02303H11.4844C11.6709 5.02303 11.8497 5.1062 11.9816 5.25426C12.1134 5.40231 12.1875 5.60312 12.1875 5.8125C12.1875 6.02188 12.1134 6.22269 11.9816 6.37074C11.8497 6.5188 11.6709 6.60197 11.4844 6.60197H3.51562C3.32914 6.60197 3.1503 6.5188 3.01844 6.37074C2.88658 6.22269 2.8125 6.02188 2.8125 5.8125ZM5.625 10.023C5.625 9.81365 5.69908 9.61284 5.83094 9.46478C5.9628 9.31673 6.14164 9.23355 6.32812 9.23355H8.67188C8.85836 9.23355 9.0372 9.31673 9.16906 9.46478C9.30092 9.61284 9.375 9.81365 9.375 10.023C9.375 10.2324 9.30092 10.4332 9.16906 10.5813C9.0372 10.7293 8.85836 10.8125 8.67188 10.8125H6.32812C6.14164 10.8125 5.9628 10.7293 5.83094 10.5813C5.69908 10.4332 5.625 10.2324 5.625 10.023Z" fill="black"/>
</svg>
