<svg width="21" height="20" viewBox="0 0 21 20" fill="none" xmlns="http://www.w3.org/2000/svg">
<path d="M15.13 13.2425C15.7925 13.0117 16.4095 12.6749 16.955 12.2465L8.16 3.8033C7.71374 4.32696 7.36296 4.91932 7.1225 5.5553C6.71505 5.45231 6.3019 5.37139 5.885 5.3129C6.29128 4.15051 7.00004 3.10699 7.94409 2.28122C8.88814 1.45545 10.0362 0.874793 11.2795 0.594286C12.5228 0.313779 13.8201 0.342712 15.0485 0.678344C16.2769 1.01398 17.3956 1.64519 18.2987 2.51215C19.2018 3.37912 19.8593 4.45312 20.2089 5.63236C20.5585 6.8116 20.5887 8.05702 20.2965 9.25057C20.0043 10.4441 19.3994 11.5463 18.5392 12.4526C17.6791 13.3589 16.5921 14.0393 15.3812 14.4293C15.3207 14.0295 15.2368 13.6333 15.13 13.2425ZM13.8837 7.6001L17.8388 11.3969C18.4082 10.7309 18.8209 9.9545 19.0485 9.12102C19.2761 8.28754 19.3133 7.41666 19.1575 6.5681C18.6275 6.8441 18.02 7.0001 17.375 7.0001C16.5959 7.00025 15.8362 6.76747 15.2013 6.3341L13.8837 7.6001ZM17.8388 3.8033L16.105 5.4677C16.4763 5.6789 16.9112 5.8001 17.375 5.8001C17.9062 5.8001 18.3988 5.6405 18.8037 5.3693C18.5669 4.80324 18.2415 4.27517 17.8388 3.8033ZM13.625 3.4001C13.625 2.7809 13.7875 2.1977 14.075 1.6889C13.1911 1.53932 12.2839 1.57502 11.4157 1.79354C10.5475 2.01206 9.73878 2.40823 9.045 2.9549L13 6.7517L14.3175 5.4857C13.8668 4.87636 13.6247 4.14745 13.625 3.4001ZM14.875 3.4001C14.875 3.8453 15 4.2617 15.2213 4.6193L16.955 2.9549C16.4675 2.5709 15.9175 2.2565 15.3225 2.0285C15.0309 2.43108 14.8747 2.90975 14.875 3.4001ZM2.375 7.6001C2.20924 7.6001 2.05027 7.66331 1.93306 7.77583C1.81585 7.88835 1.75 8.04097 1.75 8.2001V10.0001C1.75 12.2279 2.67187 14.3645 4.31282 15.9398C5.95376 17.5151 8.17936 18.4001 10.5 18.4001H12.375C12.5408 18.4001 12.6997 18.3369 12.8169 18.2244C12.9342 18.1118 13 17.9592 13 17.8001V16.0001C13 13.7723 12.0781 11.6357 10.4372 10.0604C8.79624 8.4851 6.57064 7.6001 4.25 7.6001H2.375ZM0.5 8.2001C0.5 7.72271 0.697544 7.26487 1.04917 6.9273C1.40081 6.58974 1.87772 6.4001 2.375 6.4001H4.25C6.90216 6.4001 9.4457 7.41152 11.3211 9.21187C13.1964 11.0122 14.25 13.454 14.25 16.0001V17.8001C14.25 18.2775 14.0525 18.7353 13.7008 19.0729C13.3492 19.4105 12.8723 19.6001 12.375 19.6001H10.5C7.84784 19.6001 5.3043 18.5887 3.42893 16.7883C1.55357 14.988 0.5 12.5462 0.5 10.0001V8.2001ZM5.6825 11.3753C5.74056 11.3194 5.80953 11.2751 5.88546 11.2448C5.96139 11.2146 6.04279 11.199 6.125 11.199C6.20721 11.199 6.28861 11.2146 6.36454 11.2448C6.44047 11.2751 6.50944 11.3194 6.5675 11.3753L9.0675 13.7753C9.18486 13.888 9.25079 14.0408 9.25079 14.2001C9.25079 14.3594 9.18486 14.5122 9.0675 14.6249C8.95014 14.7376 8.79097 14.8009 8.625 14.8009C8.45903 14.8009 8.29986 14.7376 8.1825 14.6249L5.6825 12.2249C5.6243 12.1692 5.57812 12.103 5.54661 12.0301C5.5151 11.9572 5.49888 11.879 5.49888 11.8001C5.49888 11.7212 5.5151 11.643 5.54661 11.5701C5.57812 11.4972 5.6243 11.431 5.6825 11.3753Z" fill="white"/>
</svg>
