<svg width="22" height="20" viewBox="0 0 22 20" fill="none" xmlns="http://www.w3.org/2000/svg">
<path d="M3 13H5C5.53043 13 6.03914 13.2107 6.41421 13.5858C6.78929 13.9609 7 14.4696 7 15V17H8V15C8 14.4696 8.21071 13.9609 8.58579 13.5858C8.96086 13.2107 9.46957 13 10 13H12C12.5304 13 13.0391 13.2107 13.4142 13.5858C13.7893 13.9609 14 14.4696 14 15V17H15V15C15 14.4696 15.2107 13.9609 15.5858 13.5858C15.9609 13.2107 16.4696 13 17 13H19C19.5304 13 20.0391 13.2107 20.4142 13.5858C20.7893 13.9609 21 14.4696 21 15V17H22V20H0V17H1V15C1 14.4696 1.21071 13.9609 1.58579 13.5858C1.96086 13.2107 2.46957 13 3 13ZM10 5L14 8L10 11V5ZM3 0H19C19.5304 0 20.0391 0.210714 20.4142 0.585786C20.7893 0.960859 21 1.46957 21 2V11.54C20.3942 11.183 19.7032 10.9964 19 11V2H3V11C2.27 11 1.59 11.19 1 11.54V2C1 1.46957 1.21071 0.960859 1.58579 0.585786C1.96086 0.210714 2.46957 0 3 0Z" fill="white"/>
</svg>
